<svg width="31" height="30" viewBox="0 0 31 30" fill="none" xmlns="http://www.w3.org/2000/svg">
<g clip-path="url(#clip0_25_35)">
<path d="M1.76056 12H28.9816V10H1.76056V12ZM28.3873 11.4064V12.284H30.3898V11.4064H28.3873ZM25.1551 28H5.58711V30H25.1551V28ZM2.35491 12.284V11.4064H0.352417V12.284H2.35491ZM6.15201 28.3486C3.65492 23.3608 2.35491 17.8607 2.35491 12.284H0.352417C0.352417 18.1711 1.72482 23.9774 4.36092 29.2432L6.15201 28.3486ZM5.58711 28C5.82634 28 6.04504 28.135 6.15201 28.3486L4.36092 29.2432C4.59315 29.707 5.06784 30 5.58711 30V28ZM24.5902 28.3486C24.6971 28.135 24.9158 28 25.1551 28V30C25.6743 30 26.1491 29.707 26.3812 29.2432L24.5902 28.3486ZM28.3873 12.284C28.3873 17.8607 27.0873 23.3608 24.5902 28.3486L26.3812 29.2432C29.0175 23.9774 30.3898 18.1711 30.3898 12.284H28.3873ZM28.9816 12C28.6534 12 28.3873 11.7343 28.3873 11.4064H30.3898C30.3898 10.6297 29.7594 10 28.9816 10V12ZM1.76056 10C0.982863 10 0.352417 10.6297 0.352417 11.4064H2.35491C2.35491 11.7343 2.08881 12 1.76056 12V10ZM8.2197 11.5145L14.2272 1.51453L12.51 0.485535L6.50257 10.4855L8.2197 11.5145ZM16.515 1.51453L22.5226 11.5145L24.2395 10.4855L18.2322 0.485535L16.515 1.51453ZM14.3699 14V24H16.3723V14H14.3699ZM10.3649 20H20.3773V18H10.3649V20Z" fill="#FF0000"/>
</g>
<defs>
<clipPath id="clip0_25_35">
<rect width="30.0374" height="30" fill="white" transform="translate(0.352417)"/>
</clipPath>
</defs>
</svg>
