<svg width="31" height="30" viewBox="0 0 31 30" fill="none" xmlns="http://www.w3.org/2000/svg">
<g clip-path="url(#clip0_25_36)">
<path d="M2.16284 12H29.3839V10H2.16284V12ZM28.7896 11.4064V12.284H30.7921V11.4064H28.7896ZM25.5573 28H5.98939V30H25.5573V28ZM2.75719 12.284V11.4064H0.7547V12.284H2.75719ZM6.55429 28.3486C4.05721 23.3608 2.75719 17.8607 2.75719 12.284H0.7547C0.7547 18.1711 2.1271 23.9774 4.76321 29.2432L6.55429 28.3486ZM5.98939 28C6.22863 28 6.44732 28.135 6.55429 28.3486L4.76321 29.2432C4.99543 29.707 5.47012 30 5.98939 30V28ZM24.9924 28.3486C25.0994 28.135 25.318 28 25.5573 28V30C26.0766 30 26.5514 29.707 26.7835 29.2432L24.9924 28.3486ZM28.7896 12.284C28.7896 17.8607 27.4895 23.3608 24.9924 28.3486L26.7835 29.2432C29.4198 23.9774 30.7921 18.1711 30.7921 12.284H28.7896ZM29.3839 12C29.0557 12 28.7896 11.7343 28.7896 11.4064H30.7921C30.7921 10.6297 30.1617 10 29.3839 10V12ZM2.16284 10C1.38515 10 0.7547 10.6297 0.7547 11.4064H2.75719C2.75719 11.7343 2.49109 12 2.16284 12V10ZM8.62198 11.5145L14.6295 1.51453L12.9123 0.485535L6.90485 10.4855L8.62198 11.5145ZM16.9173 1.51453L22.9249 11.5145L24.6418 10.4855L18.6344 0.485535L16.9173 1.51453ZM14.7721 14V24H16.7746V14H14.7721ZM10.7672 20H20.7796V18H10.7672V20Z" fill="#1F1F1F"/>
</g>
<defs>
<clipPath id="clip0_25_36">
<rect width="30.0374" height="30" fill="white" transform="translate(0.7547)"/>
</clipPath>
</defs>
</svg>
