<svg width="30" height="30" viewBox="0 0 30 30" fill="none" xmlns="http://www.w3.org/2000/svg">
<g clip-path="url(#clip0_20_101)">
<path d="M29.7251 28.3894L20.6154 19.2244C22.3132 17.191 23.336 14.5744 23.336 11.7178C23.336 5.24533 18.0898 -0.000915527 11.6173 -0.000915527C5.14477 -0.000915527 -0.101479 5.24533 -0.101479 11.7178C-0.101479 18.1903 5.14477 23.4366 11.6173 23.4366C14.5573 23.4366 17.2441 22.351 19.302 20.5613L28.3985 29.715C28.7641 30.0806 29.3585 30.0806 29.7251 29.715C30.0916 29.3494 30.0907 28.7569 29.7251 28.3894ZM11.6182 21.5775C6.17321 21.5775 1.75852 17.1628 1.75852 11.7178C1.75852 6.27283 6.17227 1.85815 11.6182 1.85815C17.0632 1.85815 21.477 6.2719 21.477 11.7178C21.477 17.1638 17.0632 21.5775 11.6182 21.5775Z" fill="black"/>
</g>
<defs>
<clipPath id="clip0_20_101">
<rect width="30" height="30" fill="white"/>
</clipPath>
</defs>
</svg>
