<svg width="220" height="70" viewBox="0 0 220 70" fill="none" xmlns="http://www.w3.org/2000/svg">
<path d="M0 44.6849L8.05242 51.6849L44.8351 15.726L81.4189 51.4931L89.2725 44.4931L44.9345 0L0 44.6849Z" fill="white"/>
<path d="M11.333 54.3699L18.9878 61.7534L45.2327 35.5753L71.4776 61.7534L78.9335 54.5616L45.2327 19.9452L11.333 54.3699Z" fill="white"/>
<path d="M21.6719 64.4384L28.7302 70H62.431L68.5946 64.2466L45.4315 41.2329L21.6719 64.4384Z" fill="white"/>
<path d="M122.675 39.0274C122.079 40.5616 121.383 42.1918 121.184 43.0548C120.886 42.0959 120.389 40.4658 119.792 38.9315L117.804 33.5616H116.213L120.289 44.2055V44.3014H121.979L126.155 33.6575H124.663L122.675 39.0274Z" fill="#FF0000"/>
<path d="M136.991 33.4658L133.014 44.1096H134.505L135.698 40.9452H140.072L141.265 44.1096H142.856L138.78 33.4658H136.991ZM136.096 39.6986C136.991 37.3014 137.587 35.4795 137.885 34.6164C138.183 35.3836 138.681 36.9178 139.774 39.6986H136.096Z" fill="#FF0000"/>
<path d="M152.499 33.4658H151.008V44.2055H158.066L158.265 42.9589H152.499V33.4658Z" fill="#FF0000"/>
<path d="M165.025 34.7123H168.604V44.2055H170.095V34.7123H173.674V33.4658H165.025V34.7123Z" fill="#FF0000"/>
<path d="M183.019 33.4658H181.527V44.1096H183.019V33.4658Z" fill="#FF0000"/>
<path d="M197.732 42.4795C197.334 41.137 195.843 36.9178 194.55 33.5616H192.363V44.2055H193.755V39.9863C193.755 38.1644 193.755 35.7671 193.656 34.5205C194.153 36.3425 195.942 41.4247 196.936 44.2055H198.229C199.521 40.8493 201.31 36.2466 201.808 34.5205H201.907C201.808 35.5753 201.808 37.589 201.808 39.6027V44.2055H203.199V33.5616H201.112C199.819 36.726 198.03 41.4247 197.732 42.4795Z" fill="#FF0000"/>
<path d="M213.936 42.863V39.1233H219.403H219.503V37.9726H214.035V34.7123H219.801V33.4658H212.544V44.1096H219.801L220 42.863H213.936Z" fill="#FF0000"/>
</svg>
