<svg width="29" height="29" viewBox="0 0 29 29" fill="none" xmlns="http://www.w3.org/2000/svg">
<path d="M14.5 14.5C16.5711 14.5 18.25 12.8211 18.25 10.75C18.25 8.67893 16.5711 7 14.5 7C12.4289 7 10.75 8.67893 10.75 10.75C10.75 12.8211 12.4289 14.5 14.5 14.5Z" stroke="white" stroke-width="3"/>
<path d="M21.9614 24.5C21.7625 20.8856 20.6559 18.25 14.4999 18.25C8.34402 18.25 7.23739 20.8856 7.03845 24.5" stroke="white" stroke-width="3" stroke-linecap="round"/>
<path d="M8.25 3.67228C10.0886 2.60871 12.2232 2 14.5 2C21.4035 2 27 7.59644 27 14.5C27 21.4035 21.4035 27 14.5 27C7.59644 27 2 21.4035 2 14.5C2 12.2232 2.60871 10.0886 3.67228 8.25" stroke="white" stroke-width="3" stroke-linecap="round"/>
</svg>
