<svg width="50" height="50" viewBox="0 0 50 50" fill="none" xmlns="http://www.w3.org/2000/svg">
<circle cx="25" cy="25" r="25" transform="matrix(-1 0 0 1 50 0)" fill="#EEEEEE"/>
<path d="M15 26C14.4477 26 14 25.5523 14 25C14 24.4477 14.4477 24 15 24V26ZM35.7071 24.2929C36.0976 24.6834 36.0976 25.3166 35.7071 25.7071L29.3431 32.0711C28.9526 32.4616 28.3195 32.4616 27.9289 32.0711C27.5384 31.6805 27.5384 31.0474 27.9289 30.6569L33.5858 25L27.9289 19.3431C27.5384 18.9526 27.5384 18.3195 27.9289 17.9289C28.3195 17.5384 28.9526 17.5384 29.3431 17.9289L35.7071 24.2929ZM15 24L35 24V26L15 26V24Z" fill="black"/>
</svg>
